<svg id="visual" viewBox="0 0 400 400" width="400" height="400" xmlns="http://www.w3.org/2000/svg" xmlns:xlink="http://www.w3.org/1999/xlink" version="1.1"><g transform="translate(413.2788939944444 405.73096283030145)"><path d="M91.9 -145.3C111.7 -112.1 115.3 -75.4 126.6 -41C137.9 -6.7 156.9 25.2 161.6 65.4C166.3 105.5 156.6 153.9 127.3 175.7C98 197.5 49 192.8 2.3 189.7C-44.5 186.5 -89 185.1 -121 164.2C-153 143.2 -172.6 102.8 -182.5 61.8C-192.4 20.7 -192.7 -21 -175.1 -51.2C-157.5 -81.5 -122 -100.2 -89.8 -129.4C-57.6 -158.6 -28.8 -198.3 3.6 -203.3C36.1 -208.3 72.1 -178.6 91.9 -145.3" fill="#F7770F"></path></g></svg>